<svg xmlns="http://www.w3.org/2000/svg" viewBox="0 0 24 24" width="24" height="24" class="h-5 w-5 mr-2">
  <path fill="#00B900" d="M20.7,14.9c-0.3-1.8-1-3.5-2-5c-1-1.4-2.3-2.6-3.8-3.4c-1.5-0.8-3.2-1.2-4.9-1.2c-1.7,0-3.4,0.4-4.9,1.2 C3.6,7.1,2.3,8.3,1.3,9.8c-1,1.4-1.7,3.1-2,5c-0.3,1.8-0.3,3.6,0,5.4c0.3,1.8,1,3.5,2,5c1,1.4,2.3,2.6,3.8,3.4 c1.5,0.8,3.2,1.2,4.9,1.2c1.7,0,3.4-0.4,4.9-1.2c1.5-0.8,2.8-2,3.8-3.4c1-1.4,1.7-3.1,2-5C21,18.5,21,16.7,20.7,14.9z M15.2,10.8 c0.2,0,0.3,0,0.5,0.1c0.1,0.1,0.2,0.2,0.3,0.3c0.1,0.1,0.1,0.3,0.1,0.5c0,0.1,0,0.3-0.1,0.4c-0.1,0.1-0.2,0.2-0.3,0.3 c-0.1,0.1-0.3,0.1-0.5,0.1c-0.2,0-0.3,0-0.5-0.1c-0.1-0.1-0.2-0.2-0.3-0.3c-0.1-0.1-0.1-0.3-0.1-0.5c0-0.1,0-0.3,0.1-0.4 c0.1-0.1,0.2-0.2,0.3-0.3C14.9,10.8,15,10.8,15.2,10.8z M12.9,10.8c0.2,0,0.3,0,0.5,0.1c0.1,0.1,0.2,0.2,0.3,0.3 c0.1,0.1,0.1,0.3,0.1,0.5c0,0.1,0,0.3-0.1,0.4c-0.1,0.1-0.2,0.2-0.3,0.3c-0.1,0.1-0.3,0.1-0.5,0.1c-0.2,0-0.3,0-0.5-0.1 c-0.1-0.1-0.2-0.2-0.3-0.3c-0.1-0.1-0.1-0.3-0.1-0.5c0-0.1,0-0.3,0.1-0.4c0.1-0.1,0.2-0.2,0.3-0.3 C12.5,10.8,12.7,10.8,12.9,10.8z M10.6,10.8c0.2,0,0.3,0,0.5,0.1c0.1,0.1,0.2,0.2,0.3,0.3c0.1,0.1,0.1,0.3,0.1,0.5 c0,0.1,0,0.3-0.1,0.4c-0.1,0.1-0.2,0.2-0.3,0.3c-0.1,0.1-0.3,0.1-0.5,0.1c-0.2,0-0.3,0-0.5-0.1c-0.1-0.1-0.2-0.2-0.3-0.3 c-0.1-0.1-0.1-0.3-0.1-0.5c0-0.1,0-0.3,0.1-0.4c0.1-0.1,0.2-0.2,0.3-0.3C10.2,10.8,10.4,10.8,10.6,10.8z M8.3,10.8 c0.2,0,0.3,0,0.5,0.1c0.1,0.1,0.2,0.2,0.3,0.3c0.1,0.1,0.1,0.3,0.1,0.5c0,0.1,0,0.3-0.1,0.4c-0.1,0.1-0.2,0.2-0.3,0.3 c-0.1,0.1-0.3,0.1-0.5,0.1c-0.2,0-0.3,0-0.5-0.1c-0.1-0.1-0.2-0.2-0.3-0.3c-0.1-0.1-0.1-0.3-0.1-0.5c0-0.1,0-0.3,0.1-0.4 c0.1-0.1,0.2-0.2,0.3-0.3C7.9,10.8,8.1,10.8,8.3,10.8z M17.3,16.2c-0.6,0.5-1.3,0.8-2.1,0.8c-0.8,0-1.5-0.3-2.1-0.8 c-0.6-0.5-0.9-1.2-0.9-2c0-0.8,0.3-1.5,0.9-2c0.6-0.5,1.3-0.8,2.1-0.8c0.8,0,1.5,0.3,2.1,0.8c0.6,0.5,0.9,1.2,0.9,2 C18.2,15,17.9,15.7,17.3,16.2z"/>
</svg>